<?xml version="1.0" standalone="no"?>
<!DOCTYPE svg PUBLIC "-//W3C//DTD SVG 1.1//EN" "http://www.w3.org/Graphics/SVG/1.1/DTD/svg11.dtd" >
<svg xmlns="http://www.w3.org/2000/svg" xmlns:xlink="http://www.w3.org/1999/xlink" version="1.1" viewBox="0 -146 1024 1024">
  <g transform="matrix(1 0 0 -1 0 878)">
   <path fill="#FFFFFF"
d="M423.5 878q115.5 0 213 -56.5t154.5 -153t59 -210.5q0 -97 -41 -182.5t-114 -144.5q10 19 15 31q20 51 23 102q0 18 -28.5 33.5t-77.5 25.5q0 -18 -18 -38h2q69 -14 76 -34v-3q-1 -17 -45.5 -29.5t-113.5 -16.5q-15 -1 -44 -1h-22h-9h-10h-10h-10q-5 1 -11 1h-8
q-3 0 -6.5 1t-5.5 1h-6q-2 0 -6 1t-6 1h-4q-2 0 -6 0.5t-6 0.5h-3q-3 0 -6.5 1t-4.5 1h-4q-1 1 -4.5 1.5t-4.5 1.5q-2 2 -4 2q-1 0 -3.5 1t-4.5 2q-1 2 -3 2t-4.5 1t-3.5 2l-4 1q0 1 -2.5 2t-3.5 2l-2 1q0 1 -2 2t-3 2l-1 1q-1 1 -2.5 2t-2.5 1l-2 2q-3 0 -3 3q-2 2 -2 5
q0 17 45.5 29.5t116.5 16.5q9 20 14.5 47.5t5.5 45.5l1 18q0 69 -54.5 127t-128.5 58q-72 0 -127 -62.5t-55 -132.5q0 -6 1 -16t7 -35.5t15 -45t28.5 -35.5t44.5 -16h44q5 -48 21 -87q30 -74 93 -120q-150 26 -250 143.5t-100 273.5q0 115 56.5 212.5t154 154t213 56.5z
M181 668q0 -50 42 -77q29 10 64 10q30 0 52 -6q38 25 40 73l-94 -21zM637 549q-7 0 -20.5 -9.5t-20.5 -24.5q-5 -11 -5.5 -24t2 -21t5 -9t10.5 2.5t17.5 12t14.5 20t5.5 24t-2 20.5t-5.5 9h-1zM267 530h26v-25q24 -2 39 -10l-8 -31q-19 10 -39 10q-23 0 -23 -16
q0 -11 33 -23q24 -8 34.5 -20t10.5 -30q0 -19 -13 -33t-36 -18v-26l-1 -1t-2 -1v-1h-23v26q-28 0 -45 11l8 33q27 -12 46 -12q26 0 26 17q0 15 -30 24q-49 16 -49 51q0 18 12 31.5t34 16.5v27zM544 487q-5 -1 -10.5 -18.5t-1.5 -33.5q3 -12 11 -22t15 -15t9 -4t6 8.5t6 19
t-1 24.5q-4 17 -16 29.5t-18 11.5zM647 467q-14 0 -27 -6q-11 -5 -19.5 -14.5t-12 -17t-2.5 -10.5q1 -2 9 -4.5t21 -2.5t24 5t19.5 14.5t12 17.5t2.5 11q-5 7 -27 7zM515 427q-5 -2 -10.5 -19t-1.5 -33q3 -12 11 -22.5t14.5 -15t8.5 -3.5q3 1 7 8.5t6 19t-1 24.5
q-4 17 -16 29.5t-18 11.5zM618 407q-14 0 -27 -6q-11 -5 -19.5 -14.5t-12 -17.5t-2.5 -10t9 -4.5t21 -2.5t24 5t19.5 14.5t12 17t2.5 10.5q-5 8 -27 8zM486 367h-1q-3 -1 -6.5 -8.5t-5.5 -19t1 -24.5q3 -12 11 -22.5t14.5 -15t8.5 -3.5q3 1 6.5 8.5t6 19t-1.5 24.5
q-4 17 -16 29t-17 12zM589 346q-15 0 -27 -5q-11 -5 -20 -14t-12 -16.5t-2 -10.5q1 -2 8.5 -4.5t20.5 -2.5t24 5t20 14t12 16.5t3 10.5q-5 7 -27 7zM456 307v-1q-3 -1 -6.5 -8.5t-6 -18.5t1.5 -25q2 -11 10 -21.5t15 -15t9 -3.5q2 0 6 7.5t6 19t-1 25.5q-4 17 -16 29t-18 12
zM559 286q-14 0 -27 -6q-11 -4 -19.5 -13t-12 -16.5t-2.5 -10.5q1 -2 9 -4.5t21 -2.5t24 5t19.5 14t12 16.5t2.5 10.5q-5 7 -27 7z" />
  </g>

</svg>
