<?xml version="1.0" standalone="no"?>
<!DOCTYPE svg PUBLIC "-//W3C//DTD SVG 1.1//EN" "http://www.w3.org/Graphics/SVG/1.1/DTD/svg11.dtd" >
<svg xmlns="http://www.w3.org/2000/svg" xmlns:xlink="http://www.w3.org/1999/xlink" version="1.1" viewBox="0 -146 1024 1024">
  <g transform="matrix(1 0 0 -1 0 878)">
   <path fill="#FFFFFF"
d="M424.235 878q115.632 0 213.67 -56.619t155.066 -154.356q57.029 -97.738 57.029 -213.26q0 -84.385 -30.653 -159.814q-30.652 -75.429 -86.623 -133.888q1.15302 5.42099 3.66199 16.962q8.88202 40.849 13.008 64.918q4.125 24.069 7.42902 61.247
q3.30499 37.177 -4.10498 61.709q-7.41003 24.531 -25.093 36.856q-28.388 20.039 -53.983 20.906q-25.5941 0.867004 -46.223 -14.132q-20.629 -14.999 -39.684 -38.071q-19.054 -23.073 -37.995 -51.43q-18.942 -28.356 -37.286 -53.655q-18.344 -25.298 -41.429 -45.3
q-23.084 -20.001 -46.79 -25.846q-23.706 5.845 -46.79 25.846q-23.084 20.002 -41.428 45.3q-18.344 25.299 -37.286 53.655q-18.941 28.357 -37.996 51.43q-19.054 23.072 -39.683 38.071q-20.629 14.999 -46.224 14.132q-25.594 -0.867004 -53.982 -20.906
q-8.732 -6.086 -14.942 -15.159q-6.2104 -9.073 -9.003 -22.375q-2.7925 -13.303 -4.6386 -24.619q-1.846 -11.316 -0.334099 -30.011q1.5119 -18.694 2.2942 -29.886q0.782394 -11.192 4.8631 -32.911q4.0804 -21.719 5.7554 -30.42q1.675 -8.70099 6.589 -31.078
t5.846 -26.762q-55.308 59.079 -86.292 134.559q-30.984 75.48 -30.984 159.142q0 115.632 56.6192 213.67q56.6188 98.038 154.357 155.066q97.737 57.029 213.259 57.029zM424.235 194.227q58.939 -25.577 119.38 4.78499q60.441 30.363 94.268 80.368
q-21.326 -33.672 -26.923 -98.87q-5.59705 -65.197 2.44696 -108.658q-88.24 -45.3809 -189.172 -45.3809q-102.462 0 -190.702 45.3809q9.379 43.4484 4.43599 108.658q-4.942 65.211 -27.381 98.87q15.112 -21.683 37.054 -41.299q21.941 -19.615 51.413 -35.543
q29.473 -15.928 60.592 -18.411q31.12 -2.48199 64.5881 10.1zM157.049 591.947q-6.90999 -0.530029 -13.258 -2.55005q-27.981 -8.51599 -41.245 -35.374q-13.2643 -26.858 -4.6456 -56.407q9.8716 -29.613 35.6866 -45.061t52.525 -6.94901q26.727 8.504 39.754 35.091
t5.62801 56.181q-8.573 25.718 -29.622 41.305q-21.049 15.587 -44.823 13.7641zM693.972 591.438q-24.83 1.24902 -45.669 -13.922q-20.839 -15.171 -28.267 -40.638q-8.60803 -30.744 4.63501 -57.354q13.243 -26.61 41.256 -33.918q28.216 -7.35999 53.686 7.67603
q25.471 15.036 34.0161 44.334q8.53198 29.254 -4.90802 56.217t-40.473 35.564q-6.27197 1.63702 -14.2761 2.04097z" />
  </g>

</svg>
