<?xml version="1.0" standalone="no"?>
<!DOCTYPE svg PUBLIC "-//W3C//DTD SVG 1.1//EN" "http://www.w3.org/Graphics/SVG/1.1/DTD/svg11.dtd" >
<svg xmlns="http://www.w3.org/2000/svg" xmlns:xlink="http://www.w3.org/1999/xlink" version="1.1" viewBox="0 -146 1024 1024">
  <g transform="matrix(1 0 0 -1 0 878)">
   <path fill="#FFFFFF"
d="M424.5 878q115.5 0 213.5 -56.5t155 -154.5t57 -213q0 -85 -30.5 -160t-86.5 -134q1 5 3 17q9 41 13.5 65t7.5 61t-4.5 61.5t-24.5 37.5q-29 20 -54.5 21t-46 -14t-39.5 -38.5t-38 -51.5t-37.5 -53.5t-41.5 -45.5t-47 -26q-23 6 -46.5 26t-41.5 45.5t-37 53.5t-38 51.5
t-40 38.5t-46.5 14t-53.5 -21q-9 -6 -15 -15t-9 -22.5t-5 -25t-0.5 -30t2.5 -29.5t5 -33t6 -30.5t6.5 -31t5.5 -26.5q-55 59 -86 134.5t-31 158.5q0 116 56.5 214t154.5 155t213.5 57zM424 194q59 -25 119.5 5t94.5 80q-21 -33 -27 -98.5t2 -108.5q-88 -46 -189 -46
q-102 0 -190 46q9 43 4 108.5t-27 98.5q15 -21 37 -41t51.5 -35.5t60.5 -18t64 9.5zM157 592q-7 -1 -13 -3q-28 -8 -41.5 -35t-4.5 -56q10 -30 35.5 -45.5t52.5 -7t40 35t5 56.5q-8 26 -29 41.5t-45 13.5zM694 591q-25 2 -46 -13.5t-28 -40.5q-9 -31 4.5 -57.5t41.5 -33.5
q28 -8 53.5 7t34 44.5t-5 56.5t-40.5 35q-6 2 -14 2z" />
  </g>

</svg>
