<?xml version="1.0" standalone="no"?>
<!DOCTYPE svg PUBLIC "-//W3C//DTD SVG 1.1//EN" "http://www.w3.org/Graphics/SVG/1.1/DTD/svg11.dtd" >
<svg xmlns="http://www.w3.org/2000/svg" xmlns:xlink="http://www.w3.org/1999/xlink" version="1.1" viewBox="0 -146 1024 1024">
  <g transform="matrix(1 0 0 -1 0 878)">
   <path fill="#FFFFFF"
d="M585 91v37q-0.0529785 8 -5 13q-5.00098 5 -13 5h-55v275q0 8.00201 -5 13q-5 5.00601 -13 5h-183q-8 0 -13 -5t-5 -13v-37q0.00299072 -8 5 -13q5.00299 -5 13 -5h55v-220h-55q-8 0 -13 -5q-5 -5.00101 -5 -13v-37q0.00299072 -8 5 -13q5.00299 -5 13 -5h256
q8 0.000198364 13 5q5 5.0005 5 13zM512 530v110q0 8 -5 13t-13 5h-110q-8 0.00201416 -13 -5q-5 -5.01501 -5 -13v-110q0.00799561 -8.01001 5 -13q5.00299 -5 13 -5h110q8.004 0 13 5q5.01202 5 5 13zM878 366q-0.00701904 -120 -59 -221q-58 -100 -160 -159
q-100 -58 -220 -59q-120 0 -221 59q-100 58 -160 159q-58 100 -58 221q0 120 58 220t160 159q100 58 221 60q120 0 220 -60q100.002 -58 160 -159q59 -100 59 -220z" />
  </g>

</svg>
