<?xml version="1.0" standalone="no"?>
<!DOCTYPE svg PUBLIC "-//W3C//DTD SVG 1.1//EN" "http://www.w3.org/Graphics/SVG/1.1/DTD/svg11.dtd" >
<svg xmlns="http://www.w3.org/2000/svg" xmlns:xlink="http://www.w3.org/1999/xlink" version="1.1" viewBox="-1 -146 1024 1024">
  <g transform="matrix(1 0 0 -1 0 878)">
   <path fill="#FFFFFF"
d="M436.359 39.6016l1.63498 32.6865q9.61301 -8.2405 10.623 -14.3006q1.01001 -6.06 -8.98901 -16.7512zM452.702 216.106q-6.543 -3.27 -11.439 -4.903q-0.817993 0 -1.63501 -0.817001q-0.816986 -0.817001 -1.634 -0.817001v26.149q28.249 -12.84 14.708 -19.612z
M428.188 878q86.794 0 165.835 -33.873q79.04 -33.873 135.945 -91.062q56.905 -57.19 89.589 -136.668q32.685 -79.478 30.282 -166.585q0 -114.142 -54.944 -211.222t-149.966 -155.01q-95.022 -57.9295 -208.57 -61.9562q49.781 31.8606 11.441 67.0069
q51.131 30.6791 19.611 75.1781q-1.42902 1.429 -5.10703 5.92299q-3.67697 4.49501 -6.33298 7.151q41.474 17.281 50.664 27.783q7.70697 5.929 8.008 12.143q0.300964 6.215 -6.517 12.486q-6.81799 6.272 -16.976 12.029q-10.158 5.756 -25.373 12.371
q121.727 45.39 152.617 67.921q53.758 39.211 -12.067 72.63l-31.052 14.708q-3.31903 1.328 -11.29 3.845t-11.589 4.327q-27.341 13.019 -75.246 -13.173q-30.575 -17.685 -22.813 -26.051v-1.633q-0.526001 -4.20401 3.13098 -6.746q3.65701 -2.54102 12.63 -3.49002
q8.97302 -0.948975 15.723 -1.12997q6.75098 -0.18103 20.086 -0.108002q5.95297 0.0329895 8.89902 0.0329895q20.02 0 34.321 11.441q14.528 2.90399 19.611 1.633q64.104 -14.793 -16.901 -52.84q-9.58795 -4.504 -28.413 -12.64q-19.202 -8.29999 -24.961 -11.331
q-11.438 -6.86401 -63.738 -27.783q0.804993 29.802 1.62299 88.66t1.646 87.844q33.12 -6.10202 71.092 0q37.971 6.103 56.384 24.515q13.0731 8.71701 16.342 6.53702q25.087 -12.484 44.944 -9.60202q19.857 2.883 30.234 25.945q3.27002 9.806 8.172 9.806
q39.914 -7.04501 47.395 22.88q0 6.53802 6.53699 6.53802q39.597 -7.42505 57.201 27.783q1.32703 2.65601 -0.868958 7.047q-2.19604 4.39203 -5.66803 4.39203q-94.14 5.88397 -156.894 0q-34.982 -3.88702 -71.909 19.613q-13.103 8.49402 -36.159 7.76202
q-23.057 -0.731018 -27.579 -14.299q-2.535 -10.144 -27.783 -19.613q17.977 12.842 17.977 34.322q0 17.159 -11.849 29.007q-11.848 11.849 -29.008 11.849q-17.161 0 -29.009 -11.848q-11.849 -11.849 -11.849 -29.009q0 -21.479 17.977 -34.322
q-26.836 6.71002 -29.417 19.614q-4.552 14.794 -27.579 15.525q-23.027 0.730957 -36.159 -8.98804q-40.046 -23.361 -71.91 -19.613q-62.753 5.88397 -156.893 0q-3.4724 0 -5.6685 -4.39203q-2.196 -4.39099 -0.868607 -7.047q17.6041 -35.208 57.2013 -27.783
q1.498 0 4.017 -2.16003q2.52 -2.15997 2.52 -4.37799q7.48199 -29.924 47.395 -22.88q3.267 0 8.17099 -9.806q19.036 -44.415 75.178 -16.343q8.98801 4.49399 16.343 -6.53702q18.336 -18.336 57.814 -24.515q39.478 -6.17902 71.296 0q0.828979 -28.995 1.646 -87.853
q0.817993 -58.858 1.62299 -88.651q-40.858 16.343 -63.737 27.783q-5.58499 2.79199 -23.14 10.294q-76.594 32.732 -76.605 48.597q-0.00498962 7.15399 12.177 12.515q6.763 2.97598 17.292 5.405q5.08301 1.271 19.611 -1.633q14.302 -11.441 34.322 -11.441
q6.496 0.360992 17.434 0.535004q10.937 0.173981 17.336 0.459991q6.39902 0.286987 13.284 1.21399q6.88602 0.927002 9.884 3.20602q2.99902 2.27798 2.53101 6.026v1.633q10.959 7.672 -20.969 25.41q-48.612 25.456 -77.09 13.814q-6.53302 -1.633 -22.88 -8.172
l-31.052 -14.708q-84.243 -42.77 31.147 -97.109q26.999 -12.714 109.403 -43.442q-64.506 -29.321 -40.857 -49.029q13.46 -15.382 50.663 -27.783q-8.17099 -8.17099 -11.44 -13.074q-33.835 -45.113 19.612 -75.1781q-38.341 -35.1463 11.44 -67.0069
q-113.639 3.2238 -209.409 60.829q-95.771 57.605 -151.555 155.085q-55.7842 97.479 -55.7842 212.274q0 115.85 57.1665 214.456q57.1665 98.607 155.873 156.169q98.705 57.563 215.149 57.563zM420.017 41.2363q-10.084 10.5171 -8.785 16.7512
q1.29901 6.2342 12.053 14.3006v-32.6865zM437.994 114.779l1.634 44.127q16.201 -13.501 9.806 -32.686q-2.28699 -4.576 -11.44 -11.441zM421.65 114.779q-9.80499 9.808 -9.80499 11.441q-6.53799 17.431 9.80499 31.051v-42.492zM420.017 209.569l-1.63501 1.634
q-1.63599 0.817993 -5.72198 2.453q-4.086 1.63399 -5.71899 2.45q-13.728 4.576 13.076 17.978z" />
  </g>

</svg>
