<?xml version="1.0" standalone="no"?>
<!DOCTYPE svg PUBLIC "-//W3C//DTD SVG 1.1//EN" "http://www.w3.org/Graphics/SVG/1.1/DTD/svg11.dtd" >
<svg xmlns="http://www.w3.org/2000/svg" xmlns:xlink="http://www.w3.org/1999/xlink" version="1.1" viewBox="0 -200 1000 1000">
  <g transform="matrix(1 0 0 -1 0 800)">
   <path fill="#FFFFFF"
d="M423.5 878c77 0 148 -18.8333 213 -56.5s116.5 -88.6667 154.5 -153s57.6667 -134.5 59 -210.5c0 -61.3333 -12.1667 -119 -36.5 -173s-58.5 -100.667 -102.5 -140l-81 91l54 55h-182v-183l54 55l68 -77c-39.3333 -23.3333 -75.6667 -38 -109 -44
c-33.3333 -6 -88.3333 -7.33333 -165 -4c-51.3333 8.66667 -99.3333 26.3333 -144 53l76 72l55 -55v183h-183l55 -55l-86 -79c-38.6667 38.6667 -68.8333 83.6667 -90.5 135c-21.6667 51.3333 -32.5 105.667 -32.5 163c0 76.6667 18.8333 147.5 56.5 212.5
c37.6667 65 89 116.333 154 154s136 56.5 213 56.5zM624 86zM206 91zM167 699l-73 -73l115 -116l-55 -54h183v182l-55 -54zM672 699l-116 -115l-54 54v-182h183l-55 54l115 116zM419 453c-22 0 -40.6667 -7.83333 -56 -23.5s-23 -34.5 -23 -56.5s7.66667 -40.6667 23 -56
s34 -23 56 -23s40.8333 7.66667 56.5 23s23.5 34 23.5 56s-7.83333 40.8333 -23.5 56.5s-34.5 23.5 -56.5 23.5z" />
  </g>

</svg>
