<?xml version="1.0" standalone="no"?>
<!DOCTYPE svg PUBLIC "-//W3C//DTD SVG 1.1//EN" "http://www.w3.org/Graphics/SVG/1.1/DTD/svg11.dtd" >
<svg xmlns="http://www.w3.org/2000/svg" xmlns:xlink="http://www.w3.org/1999/xlink" version="1.1" viewBox="0 -146 1024 1024">
  <g transform="matrix(1 0 0 -1 0 878)">
   <path fill="#666666"
d="M831 183q0 23 -15 39l-119 119q-16 16 -39 15q-24.004 0 -41 -18q2 -2 11 -10q9 -9.00699 12 -13q3 -3 9 -11q5 -7.00201 7 -14q2 -7.00201 2 -16q0 -23 -16 -38q-16 -16 -39 -17q-8 0 -15 2t-15 7q-7 5 -11 10l-12 12l-10 10q-18.006 -17 -20 -41q0 -23 17 -39l117 -119
q15 -15 39 -15q23 0 39 15l84 83q15 16 15 39zM430 586q0 23 -15 39l-118 117q-16 16.004 -39 17q-23 0 -39 -16l-84 -83q-16 -16 -16 -38q0 -23 16 -39l119 -119q15 -15 39 -15q24.001 0 41 17l-11 11l-13 12q-3 3.004 -8 11q-5 7 -7 15q-2 7 -2 15q0 23 15 39
q16 16.003 39 16q8 0.00799561 17 -2q7 -2.026 14 -8q7 -4.992 10 -8l12 -12l12 -11q18 18 18 42zM942 183q0 -69 -49 -116l-84 -83q-47.003 -47 -116 -47q-70 0 -116 48l-118 117q-47 47 -47 117q0 71 50 119l-50 50q-49 -50 -119 -50q-69 0 -117 48l-119 119
q-48 48 -48 117q0 69.001 48 115l84 84q47 47 117 47t117 -48l117 -119q47 -47.002 48 -115q0 -71.001 -51 -120l51 -50q49.001 50 118 50q69 0 117 -48l119 -119q48 -47 48 -116z" />
  </g>

</svg>
