<?xml version="1.0" standalone="no"?>
<!DOCTYPE svg PUBLIC "-//W3C//DTD SVG 1.1//EN" "http://www.w3.org/Graphics/SVG/1.1/DTD/svg11.dtd" >
<svg xmlns="http://www.w3.org/2000/svg" xmlns:xlink="http://www.w3.org/1999/xlink" version="1.1" viewBox="0 -200 1000 1000">
  <g transform="matrix(1 0 0 -1 0 800)">
   <path fill="#FFFFFF"
d="M423.5 878c77 0 148 -18.8333 213 -56.5s116.5 -88.6667 154.5 -153s57.6667 -134.5 59 -210.5c0 -62 -12.5 -120.333 -37.5 -175c-25 -54.6667 -59.8333 -101.667 -104.5 -141c1.33333 12 2.5 27.6667 3.5 47s1.5 30.6667 1.5 34c1.33333 9.33333 3 31.3333 5 66
c2 34.6667 3.33333 72.3333 4 113s-0.666667 65.3333 -4 74c-7.33333 16 -24 36.8333 -50 62.5s-53 50.3333 -81 74s-43.3333 36.8333 -46 39.5c-48 50.6667 -79.3333 76 -94 76c-10 -6.66667 -11 -21.6667 -3 -45c6.66667 -16 19.5 -32.8333 38.5 -50.5s40.3333 -35 64 -52
s38.5 -28.5 44.5 -34.5c14.6667 -15.3333 26.3333 -34.5 35 -57.5s8.33333 -44.5 -1 -64.5c-10.6667 -3.33333 -19.8333 2 -27.5 16s-13.8333 30.5 -18.5 49.5s-11.5 36.6667 -20.5 53s-19.8333 24.1667 -32.5 23.5c-5.33333 -5.33333 -8.66667 -12.1667 -10 -20.5
s-0.666667 -18.1667 2 -29.5c2.66667 -11.3333 5.33333 -21.3333 8 -30s6.33333 -19.1667 11 -31.5s7.5 -20.3333 8.5 -24s7.33333 -28.6667 19 -75s22.5 -78.1667 32.5 -95.5c8.66667 -13.3333 12.6667 -43.1667 12 -89.5c-0.666667 -46.3333 -0.333333 -77.1667 1 -92.5
c-34.6667 -19.3333 -68.5 -31.5 -101.5 -36.5s-85.8333 -6.16667 -158.5 -3.5c-38.6667 6.66667 -75.6667 18.6667 -111 36l8 4c2.66667 16 3.16667 34.8333 1.5 56.5c-1.66667 21.6667 -1.83333 45.5 -0.5 71.5s5 44 11 54c10.6667 17.3333 21.6667 49.1667 33 95.5
s17.6667 71.3333 19 75s4.33333 11.6667 9 24s8.33333 22.8333 11 31.5s5.33333 18.6667 8 30c2.66667 11.3333 3.33333 21.1667 2 29.5s-4.66667 15.1667 -10 20.5c-12.6667 0.666667 -23.6667 -7.16667 -33 -23.5s-16.3333 -34 -21 -53s-10.8333 -35.5 -18.5 -49.5
c-7.66667 -14 -16.5 -19.3333 -26.5 -16c-10 20 -10.5 41.5 -1.5 64.5s20.5 42.1667 34.5 57.5c6 6 20.8333 17.5 44.5 34.5s45.1667 34.3333 64.5 52s32 34.5 38 50.5c8.66667 23.3333 8 38.3333 -2 45c-15.3333 0 -47 -25.3333 -95 -76
c-2.66667 -2.66667 -17.8333 -15.8333 -45.5 -39.5c-27.6667 -23.6667 -54.5 -48.3333 -80.5 -74s-42.6667 -46.5 -50 -62.5c-4 -8.66667 -5.5 -33.3333 -4.5 -74s2.5 -78.3333 4.5 -113c2 -34.6667 3.33333 -56.6667 4 -66c0 -1.33333 0.666667 -13.6667 2 -37
s3 -41.6667 5 -55c-46.6667 40 -83.3333 88 -110 144c-26.6667 56 -40 116 -40 180c0 76.6667 18.8333 147.5 56.5 212.5c37.6667 65 89 116.333 154 154s136 56.5 213 56.5zM708 142zM239 74z" />
  </g>

</svg>
