<?xml version="1.0" standalone="no"?>
<!DOCTYPE svg PUBLIC "-//W3C//DTD SVG 1.1//EN" "http://www.w3.org/Graphics/SVG/1.1/DTD/svg11.dtd" >
<svg xmlns="http://www.w3.org/2000/svg" xmlns:xlink="http://www.w3.org/1999/xlink" version="1.1" viewBox="0 -146 1024 1024">
  <g transform="matrix(1 0 0 -1 0 878)">
   <path fill="#FFFFFF"
d="M427 878q87 0 166 -34t136 -91t90 -136t31 -165q0 -129 -70.5 -235t-185.5 -156v98l115 115q10 10 12 16q1 3 1 13v221q0 12 -8 20t-20 8q-11 0 -19.5 -8t-8.5 -20v-139q14 -5 22 -13q14 -14 14 -33.5t-14 -33.5l-74 -72q-4 -3 -8 -2t-5 5q-3 6 2 10l72 70q8 9 8 21
t-8 20q-9 8 -21 8t-20 -8l-161 -157q-11 -11 -8 -26v-148q-11 -1 -38 -1q-24 0 -37 1v148q2 15 -8 26l-161 157q-9 9 -21.5 9t-19.5 -9q-8 -8 -8 -20t8 -21l71 -72q4 -4 1 -10q-1 -3 -5 -4t-8 1l-74 74q-13 13 -13.5 33.5t10.5 33.5q11 11 21 13v139q0 12 -7.5 20t-19.5 8
t-20 -8t-8 -20v-222q0 -10 1 -14q3 -10 12 -16l114 -115v-98q-114 51 -184.5 156.5t-70.5 235.5q0 116 57 214.5t155.5 155.5t214.5 57zM427 677q-69 0 -118 -49t-49 -118.5t49 -118.5t118 -49t118 49.5t49 118t-49 118t-118 49.5z" />
  </g>

</svg>
