<?xml version="1.0" standalone="no"?>
<!DOCTYPE svg PUBLIC "-//W3C//DTD SVG 1.1//EN" "http://www.w3.org/Graphics/SVG/1.1/DTD/svg11.dtd" >
<svg xmlns="http://www.w3.org/2000/svg" xmlns:xlink="http://www.w3.org/1999/xlink" version="1.1" viewBox="0 -200 1000 1000">
  <g transform="matrix(1 0 0 -1 0 800)">
   <path fill="#FFFFFF"
d="M423.5 878c77 0 148 -18.8333 213 -56.5s116.5 -88.6667 154.5 -153s57.6667 -134.5 59 -210.5c0 -64.6667 -13.6667 -125.5 -41 -182.5s-65.3333 -105.167 -114 -144.5c-38 -24.6667 -64.3333 -41.3333 -79 -50s-32.8333 -17.1667 -54.5 -25.5
s-44.5 -13.8333 -68.5 -16.5v115c0 4.66667 1 8.33333 3 11s4.66667 4 8 4c10.6667 0 19.3333 0.833333 26 2.5s11.1667 4.83333 13.5 9.5s3.66667 8.16667 4 10.5s0.5 6.83333 0.5 13.5v316c0 16.6667 -2 30.3333 -6 41s-9.33333 18.6667 -16 24s-13.5 9.66667 -20.5 13
s-13.8333 7 -20.5 11s-11.6667 8.66667 -15 14c-2.66667 4.66667 -4.16667 9.5 -4.5 14.5s0.666667 9.83333 3 14.5s4.66667 9.16667 7 13.5s5.33333 9.33333 9 15s6.5 10.8333 8.5 15.5c9.33333 20 9.33333 40.6667 0 62c-4.66667 10.6667 -12.8333 19.1667 -24.5 25.5
s-23.6667 9.5 -36 9.5s-24.1667 -3.16667 -35.5 -9.5s-19.3333 -14.8333 -24 -25.5c-10 -21.3333 -10 -42 0 -62c2 -4.66667 4.83333 -9.83333 8.5 -15.5s6.66667 -10.6667 9 -15s4.5 -8.83333 6.5 -13.5s3 -9.5 3 -14.5s-1.33333 -9.83333 -4 -14.5
c-3.33333 -5.33333 -8.33333 -10 -15 -14s-13.5 -7.66667 -20.5 -11s-13.8333 -7.66667 -20.5 -13s-12 -13.3333 -16 -24s-6 -24.3333 -6 -41v-316c0 -6.66667 0.166667 -11.1667 0.5 -13.5s1.66667 -5.83333 4 -10.5s6.66667 -7.83333 13 -9.5s15.1667 -2.5 26.5 -2.5
c3.33333 0 6 -1.33333 8 -4s3 -5 3 -7v-4v-117c-7.33333 0 -15 0.333333 -23 1c-100 17.3333 -183.333 65.1667 -250 143.5c-66.6667 78.3333 -100 169.5 -100 273.5c0 76.6667 18.8333 147.5 56.5 212.5c37.6667 65 89 116.333 154 154s136 56.5 213 56.5z" />
  </g>

</svg>
