<?xml version="1.0" standalone="no"?>
<!DOCTYPE svg PUBLIC "-//W3C//DTD SVG 1.1//EN" "http://www.w3.org/Graphics/SVG/1.1/DTD/svg11.dtd" >
<svg xmlns="http://www.w3.org/2000/svg" xmlns:xlink="http://www.w3.org/1999/xlink" version="1.1" viewBox="0 -200 1000 1000">
  <g transform="matrix(1 0 0 -1 0 800)">
   <path fill="#FFFFFF"
d="M423 878c58 0 113.5 -11.3333 166.5 -34s98.5 -53 136.5 -91s68.3333 -83.3333 91 -136s33.6667 -108 33 -166c0 -77.3333 -19.1667 -148.833 -57.5 -214.5c-38.3333 -65.6667 -90.3333 -117.667 -156 -156c-65.6667 -38.3333 -137.5 -57.5 -215.5 -57.5
c-104.667 0 -196.667 34 -276 102c-79.3333 68 -127.667 152.667 -145 254h2h270c10.6667 -18 25.3333 -32.3333 44 -43s39 -16 61 -16s42.3333 5.16667 61 15.5s33.3333 24.5 44 42.5h25c7.33333 0 13.5 -2.5 18.5 -7.5s7.5 -11.5 7.5 -19.5v-41
c0 -5.33333 2.66667 -8 8 -8h122c5.33333 0 8 2.66667 8 8v41c0 45.3333 -15.8333 83.8333 -47.5 115.5s-69.8333 47.5 -114.5 47.5h-27l-13 31c-2 5.33333 -5.66667 8 -11 8h-158c-6 0 -9.66667 -2.66667 -11 -8l-13 -31h-276c16 104 63.8333 190.667 143.5 260
c79.6667 69.3333 172.833 104 279.5 104zM343 691c-4.66667 0 -8 -2.66667 -10 -8l-3 -13h-41c-8 9.33333 -18.6667 14 -32 14c-10.6667 0 -19.8333 -3.83333 -27.5 -11.5s-11.5 -16.8333 -11.5 -27.5s3.83333 -19.8333 11.5 -27.5s16.8333 -11.5 27.5 -11.5
c14.6667 0 25.3333 5 32 15h50v-37h76v37h53c7.33333 -10 17.6667 -15 31 -15c10.6667 0 19.6667 3.66667 27 11s10.3333 16.6667 9 28c0 10.6667 -4 19.8333 -12 27.5s-17.3333 11.5 -28 11.5c-14 0 -24.3333 -4.66667 -31 -14h-43l-3 13c0 5.33333 -3 8 -9 8h-66z
M596.5 279c-1 0 -1.83333 -0.333333 -2.5 -1c-4 -8 -10.8333 -20.1667 -20.5 -36.5c-9.66667 -16.3333 -15.5 -27.8333 -17.5 -34.5c-4 -14 -1.66667 -25.6667 7 -35s19.5 -14 32.5 -14s23.8333 4.66667 32.5 14s11.6667 21 9 35c-2 6 -8 17 -18 33s-16.6667 28.6667 -20 38
c-0.666667 0.666667 -1.5 1 -2.5 1z" />
  </g>

</svg>
